<?xml version="1.0" encoding="UTF-8"?>
<svg width="60px" height="58px" viewBox="0 0 60 58" version="1.1" xmlns="http://www.w3.org/2000/svg" xmlns:xlink="http://www.w3.org/1999/xlink">
    <!-- Generator: Sketch 51.3 (57544) - http://www.bohemiancoding.com/sketch -->
    <title>automation</title>
    <desc>Created with Sketch.</desc>
    <defs></defs>
    <g id="Page-1" stroke="none" stroke-width="1" fill="none" fill-rule="evenodd">
        <g id="automation" fill="#28C2A0" fill-rule="nonzero">
            <path d="M34.787,41.422 C34.624,42.42 34.365,43.384 34.016,44.306 L37.147,47.143 C36.708,48.067 36.208,48.955 35.631,49.789 L31.611,48.493 C30.977,49.268 30.267,49.977 29.492,50.611 L30.788,54.631 C29.954,55.208 29.066,55.707 28.142,56.147 L25.305,53.016 C24.383,53.365 23.42,53.624 22.421,53.787 L21.528,57.923 C21.023,57.963 20.516,58 20,58 C19.484,58 18.977,57.963 18.471,57.923 L17.578,53.787 C16.58,53.624 15.616,53.365 14.694,53.016 L11.857,56.147 C10.933,55.708 10.045,55.208 9.211,54.631 L10.507,50.611 C9.732,49.977 9.023,49.267 8.389,48.493 L4.369,49.789 C3.792,48.955 3.293,48.067 2.853,47.143 L5.984,44.306 C5.635,43.384 5.376,42.421 5.213,41.422 L1.077,40.529 C1.037,40.023 1,39.516 1,39 C1,38.484 1.037,37.977 1.077,37.471 L5.213,36.578 C5.376,35.58 5.635,34.616 5.984,33.694 L2.853,30.857 C3.292,29.933 3.792,29.045 4.369,28.211 L8.389,29.507 C9.023,28.732 9.733,28.023 10.508,27.389 L9.212,23.369 C10.046,22.792 10.934,22.293 11.858,21.853 L14.695,24.984 C15.617,24.635 16.58,24.376 17.579,24.213 L18.472,20.077 C18.977,20.037 19.484,20 20,20 C20.516,20 21.023,20.037 21.529,20.077 L22.422,24.213 C23.42,24.376 24.384,24.635 25.306,24.984 L28.143,21.853 C29.067,22.292 29.955,22.792 30.789,23.369 L29.493,27.389 C30.268,28.023 30.977,28.733 31.611,29.508 L35.631,28.212 C36.208,29.046 36.707,29.934 37.147,30.858 L34.016,33.695 C34.365,34.617 34.624,35.58 34.787,36.579 L38.923,37.472 C38.963,37.977 39,38.484 39,39 C39,39.516 38.963,40.023 38.923,40.529 L34.787,41.422 Z M20,29 C14.477,29 10,33.477 10,39 C10,44.523 14.477,49 20,49 C25.523,49 30,44.523 30,39 C30,33.477 25.523,29 20,29 Z" id="Shape"></path>
            <path d="M48.659,13.305 C48.503,13.822 48.299,14.318 48.048,14.785 L49.627,17.811 C49.094,18.485 48.486,19.093 47.812,19.626 L44.786,18.047 C44.319,18.299 43.823,18.503 43.306,18.658 L42.282,21.918 C41.86,21.968 41.434,22 41,22 C40.566,22 40.14,21.968 39.719,21.919 L38.695,18.659 C38.178,18.504 37.682,18.299 37.215,18.048 L34.189,19.627 C33.515,19.094 32.907,18.486 32.374,17.812 L33.953,14.786 C33.701,14.319 33.497,13.823 33.342,13.306 L30.082,12.282 C30.032,11.86 30,11.434 30,11 C30,10.566 30.032,10.14 30.081,9.719 L33.341,8.695 C33.496,8.178 33.701,7.682 33.952,7.215 L32.373,4.189 C32.906,3.515 33.514,2.907 34.188,2.374 L37.214,3.953 C37.681,3.701 38.177,3.497 38.694,3.342 L39.718,0.082 C40.14,0.032 40.566,-1.77635684e-15 41,-1.77635684e-15 C41.434,-1.77635684e-15 41.86,0.032 42.281,0.081 L43.305,3.341 C43.822,3.496 44.318,3.701 44.785,3.952 L47.811,2.373 C48.485,2.906 49.093,3.514 49.626,4.188 L48.047,7.214 C48.299,7.681 48.503,8.177 48.658,8.694 L51.918,9.718 C51.968,10.14 52,10.566 52,11 C52,11.434 51.968,11.86 51.919,12.281 L48.659,13.305 Z M41,7 C38.791,7 37,8.791 37,11 C37,13.209 38.791,15 41,15 C43.209,15 45,13.209 45,11 C45,8.791 43.209,7 41,7 Z" id="Shape"></path>
            <path d="M56.739,35.871 C56.585,36.426 56.368,36.952 56.09,37.443 L57.085,39.537 C56.633,40.114 56.114,40.633 55.537,41.085 L53.443,40.09 C52.953,40.368 52.426,40.585 51.871,40.739 L51.093,42.927 C50.734,42.971 50.371,43 50,43 C49.629,43 49.266,42.971 48.907,42.927 L48.129,40.739 C47.574,40.585 47.048,40.368 46.557,40.09 L44.463,41.085 C43.886,40.633 43.367,40.114 42.915,39.537 L43.91,37.443 C43.632,36.953 43.415,36.426 43.261,35.872 L41.073,35.094 C41.029,34.734 41,34.371 41,34 C41,33.629 41.029,33.266 41.073,32.907 L43.261,32.129 C43.415,31.574 43.632,31.048 43.91,30.558 L42.915,28.464 C43.367,27.887 43.886,27.368 44.463,26.916 L46.557,27.911 C47.047,27.633 47.574,27.416 48.129,27.262 L48.907,25.074 C49.266,25.029 49.629,25 50,25 C50.371,25 50.734,25.029 51.093,25.073 L51.871,27.261 C52.426,27.415 52.952,27.632 53.443,27.91 L55.537,26.915 C56.114,27.367 56.633,27.886 57.085,28.463 L56.09,30.557 C56.368,31.047 56.585,31.574 56.739,32.129 L58.927,32.907 C58.971,33.266 59,33.629 59,34 C59,34.371 58.971,34.734 58.927,35.093 L56.739,35.871 Z M50,31 C48.343,31 47,32.343 47,34 C47,35.657 48.343,37 50,37 C51.657,37 53,35.657 53,34 C53,32.343 51.657,31 50,31 Z" id="Shape"></path>
            <path d="M59.196,2.02 L53.215,0.824 L52.019,6.804 L53.98,7.197 L54.519,4.505 C55.488,6.521 56,8.743 56,11 C56,14.448 54.862,17.69 52.71,20.375 L54.271,21.626 C56.676,18.625 58,14.852 58,11 C58,8.381 57.395,5.799 56.244,3.469 L58.804,3.981 L59.196,2.02 Z" id="Shape"></path>
            <path d="M21.707,10.293 L20.293,11.707 L21.652,13.066 C21.102,13.031 20.551,13 20,13 C12.264,13 4.982,16.411 0.022,22.359 L1.558,23.64 C6.137,18.149 12.858,15 20,15 C20.509,15 21.017,15.029 21.525,15.061 L20.293,16.293 L21.707,17.707 L25.414,14 L21.707,10.293 Z" id="Shape"></path>
        </g>
    </g>
</svg>