<?xml version="1.0" encoding="UTF-8" standalone="no"?>
<svg
   xmlns:dc="http://purl.org/dc/elements/1.1/"
   xmlns:cc="http://creativecommons.org/ns#"
   xmlns:rdf="http://www.w3.org/1999/02/22-rdf-syntax-ns#"
   xmlns:svg="http://www.w3.org/2000/svg"
   xmlns="http://www.w3.org/2000/svg"
   viewBox="0 0 666.66669 666.66669"
   height="666.66669"
   width="666.66669"
   xml:space="preserve"
   id="svg10"
   version="1.1"><metadata
     id="metadata16"><rdf:RDF><cc:Work
         rdf:about=""><dc:format>image/svg+xml</dc:format><dc:type
           rdf:resource="http://purl.org/dc/dcmitype/StillImage" /><dc:title></dc:title></cc:Work></rdf:RDF></metadata><defs
     id="defs14"><linearGradient
       id="linearGradient38"
       spreadMethod="pad"
       gradientTransform="matrix(-2.19e-5,-500.00049,-500.00049,2.19e-5,249.99951,500)"
       gradientUnits="userSpaceOnUse"
       y2="0"
       x2="1"
       y1="0"
       x1="0"><stop
         id="stop32"
         offset="0"
         style="stop-opacity:1;stop-color:#0bcdd5" /><stop
         id="stop34"
         offset="0.67931091"
         style="stop-opacity:1;stop-color:#b3ecdb" /><stop
         id="stop36"
         offset="1"
         style="stop-opacity:1;stop-color:#b3ecdb" /></linearGradient><clipPath
       id="clipPath48"
       clipPathUnits="userSpaceOnUse"><path
         id="path46"
         d="M 0,68.14 H 500 V 339.924 H 0 Z" /></clipPath><clipPath
       id="clipPath56"
       clipPathUnits="userSpaceOnUse"><path
         id="path54"
         d="M 0.0268555,184.992 H 500 v -42.25 H 0.0268555 Z" /></clipPath><clipPath
       id="clipPath60"
       clipPathUnits="userSpaceOnUse"><path
         id="path58"
         clip-rule="evenodd"
         d="M 0.027,142.742 500,154.745 0.027,184.992 Z" /></clipPath><linearGradient
       id="linearGradient76"
       spreadMethod="pad"
       gradientTransform="matrix(-1.8e-6,-42.25,-42.25,1.8e-6,250.01318,184.99219)"
       gradientUnits="userSpaceOnUse"
       y2="0"
       x2="1"
       y1="0"
       x1="0"><stop
         id="stop66"
         offset="0"
         style="stop-opacity:0.87278553;stop-color:#ffffff" /><stop
         id="stop68"
         offset="0.12466028"
         style="stop-opacity:0.62226291;stop-color:#ffffff" /><stop
         id="stop70"
         offset="0.317597"
         style="stop-opacity:0.62226291;stop-color:#ffffff" /><stop
         id="stop72"
         offset="0.85511689"
         style="stop-opacity:1;stop-color:#ffffff" /><stop
         id="stop74"
         offset="1"
         style="stop-opacity:1;stop-color:#ffffff" /></linearGradient><mask
       id="mask78"
       height="1"
       width="1"
       y="0"
       x="0"
       maskUnits="userSpaceOnUse"><g
         id="g88"><g
           id="g86"><g
             id="g84"><g
               id="g82"><path
                 id="path80"
                 style="fill:url(#linearGradient76);stroke:none"
                 d="M -32768,32767 H 32767 V -32768 H -32768 Z" /></g></g></g></g></mask><linearGradient
       id="linearGradient100"
       spreadMethod="pad"
       gradientTransform="matrix(-1.8e-6,-42.25,-42.25,1.8e-6,250.01318,184.99219)"
       gradientUnits="userSpaceOnUse"
       y2="0"
       x2="1"
       y1="0"
       x1="0"><stop
         id="stop90"
         offset="0"
         style="stop-opacity:1;stop-color:#c4eff2" /><stop
         id="stop92"
         offset="0.12466028"
         style="stop-opacity:1;stop-color:#bcedf0" /><stop
         id="stop94"
         offset="0.317597"
         style="stop-opacity:1;stop-color:#bcedf0" /><stop
         id="stop96"
         offset="0.85511689"
         style="stop-opacity:1;stop-color:#ffffff" /><stop
         id="stop98"
         offset="1"
         style="stop-opacity:1;stop-color:#ffffff" /></linearGradient><clipPath
       id="clipPath126"
       clipPathUnits="userSpaceOnUse"><path
         id="path124"
         d="M 119.268,211.75 H 619.241 V 169.5 H 119.268 Z" /></clipPath><clipPath
       id="clipPath130"
       clipPathUnits="userSpaceOnUse"><path
         id="path128"
         clip-rule="evenodd"
         d="M 619.241,169.5 119.268,181.503 619.241,211.75 Z" /></clipPath><linearGradient
       id="linearGradient146"
       spreadMethod="pad"
       gradientTransform="matrix(1.8e-6,-42.25,42.25,1.8e-6,369.25391,211.75098)"
       gradientUnits="userSpaceOnUse"
       y2="0"
       x2="1"
       y1="0"
       x1="0"><stop
         id="stop136"
         offset="0"
         style="stop-opacity:0.87278553;stop-color:#ffffff" /><stop
         id="stop138"
         offset="0.12466028"
         style="stop-opacity:0.62226291;stop-color:#ffffff" /><stop
         id="stop140"
         offset="0.317597"
         style="stop-opacity:0.62226291;stop-color:#ffffff" /><stop
         id="stop142"
         offset="0.85511689"
         style="stop-opacity:1;stop-color:#ffffff" /><stop
         id="stop144"
         offset="1"
         style="stop-opacity:1;stop-color:#ffffff" /></linearGradient><mask
       id="mask148"
       height="1"
       width="1"
       y="0"
       x="0"
       maskUnits="userSpaceOnUse"><g
         id="g158"><g
           id="g156"><g
             id="g154"><g
               id="g152"><path
                 id="path150"
                 style="fill:url(#linearGradient146);stroke:none"
                 d="M -32768,32767 H 32767 V -32768 H -32768 Z" /></g></g></g></g></mask><linearGradient
       id="linearGradient170"
       spreadMethod="pad"
       gradientTransform="matrix(1.8e-6,-42.25,42.25,1.8e-6,369.25391,211.75098)"
       gradientUnits="userSpaceOnUse"
       y2="0"
       x2="1"
       y1="0"
       x1="0"><stop
         id="stop160"
         offset="0"
         style="stop-opacity:1;stop-color:#c4eff2" /><stop
         id="stop162"
         offset="0.12466028"
         style="stop-opacity:1;stop-color:#bcedf0" /><stop
         id="stop164"
         offset="0.317597"
         style="stop-opacity:1;stop-color:#bcedf0" /><stop
         id="stop166"
         offset="0.85511689"
         style="stop-opacity:1;stop-color:#ffffff" /><stop
         id="stop168"
         offset="1"
         style="stop-opacity:1;stop-color:#ffffff" /></linearGradient><clipPath
       id="clipPath196"
       clipPathUnits="userSpaceOnUse"><path
         id="path194"
         d="m 225.436,142.742 h 499.973 v -42.25 H 225.436 Z" /></clipPath><clipPath
       id="clipPath200"
       clipPathUnits="userSpaceOnUse"><path
         id="path198"
         clip-rule="evenodd"
         d="m 725.409,100.492 -499.973,12.003 499.973,30.247 z" /></clipPath><linearGradient
       id="linearGradient216"
       spreadMethod="pad"
       gradientTransform="matrix(1.8e-6,-42.25,42.25,1.8e-6,475.42285,142.74316)"
       gradientUnits="userSpaceOnUse"
       y2="0"
       x2="1"
       y1="0"
       x1="0"><stop
         id="stop206"
         offset="0"
         style="stop-opacity:0.87278553;stop-color:#ffffff" /><stop
         id="stop208"
         offset="0.12466028"
         style="stop-opacity:0.62226291;stop-color:#ffffff" /><stop
         id="stop210"
         offset="0.317597"
         style="stop-opacity:0.62226291;stop-color:#ffffff" /><stop
         id="stop212"
         offset="0.85511689"
         style="stop-opacity:1;stop-color:#ffffff" /><stop
         id="stop214"
         offset="1"
         style="stop-opacity:1;stop-color:#ffffff" /></linearGradient><mask
       id="mask218"
       height="1"
       width="1"
       y="0"
       x="0"
       maskUnits="userSpaceOnUse"><g
         id="g228"><g
           id="g226"><g
             id="g224"><g
               id="g222"><path
                 id="path220"
                 style="fill:url(#linearGradient216);stroke:none"
                 d="M -32768,32767 H 32767 V -32768 H -32768 Z" /></g></g></g></g></mask><linearGradient
       id="linearGradient240"
       spreadMethod="pad"
       gradientTransform="matrix(1.8e-6,-42.25,42.25,1.8e-6,475.42285,142.74316)"
       gradientUnits="userSpaceOnUse"
       y2="0"
       x2="1"
       y1="0"
       x1="0"><stop
         id="stop230"
         offset="0"
         style="stop-opacity:1;stop-color:#c4eff2" /><stop
         id="stop232"
         offset="0.12466028"
         style="stop-opacity:1;stop-color:#bcedf0" /><stop
         id="stop234"
         offset="0.317597"
         style="stop-opacity:1;stop-color:#bcedf0" /><stop
         id="stop236"
         offset="0.85511689"
         style="stop-opacity:1;stop-color:#ffffff" /><stop
         id="stop238"
         offset="1"
         style="stop-opacity:1;stop-color:#ffffff" /></linearGradient><clipPath
       id="clipPath266"
       clipPathUnits="userSpaceOnUse"><path
         id="path264"
         d="M 0,118.049 H 500 V 362.013 H 0 Z" /></clipPath><clipPath
       id="clipPath298"
       clipPathUnits="userSpaceOnUse"><path
         id="path296"
         d="M 87.6978,244.604 H 248.077 V 193.868 H 87.6978 Z" /></clipPath><clipPath
       id="clipPath326"
       clipPathUnits="userSpaceOnUse"><path
         id="path324"
         d="m 326.163,177.516 c -6.654,-5.846 -8.663,-15.353 -7.613,-18.887 v 0 c -7.644,7.754 -17.523,14.94 -29.168,11.575 v 0 c -13.386,-3.867 -12.802,-16.136 -13.657,-16.543 v 0 c -0.268,-0.129 -4.173,3.092 -8.826,3.845 v 0 c -4.3,0.696 -9.44,-0.477 -12.372,-3.852 v 0 l -1.987,-2.659 c -3.064,1.285 -11.184,3.818 -13.792,0.757 v 0 c -6.612,-8.506 14.684,-9.01 17.363,-9.01 v 0 c 13.18,0.002 26.358,0.002 39.537,0.002 v 0 c 24.526,0 49.051,0 73.577,0.002 v 0 c 10.303,0.002 20.589,0.16 30.892,0.294 v 0 c 5.87,0.077 20.167,-0.044 20.167,5.034 v 0 c -0.456,5.47 -14.631,5.796 -21.266,2.224 v 0 c -0.849,8.897 -11.512,19.704 -22.316,13.57 v 0 c -0.664,-0.377 -0.077,2.313 -4.879,8.072 v 0 c -5.323,6.221 -9.985,10.044 -17.759,12.077 v 0 c -2.491,0.651 -5.109,0.976 -7.745,0.976 v 0 c -7.35,0 -14.843,-2.52 -20.156,-7.477" /></clipPath><linearGradient
       id="linearGradient346"
       spreadMethod="pad"
       gradientTransform="matrix(154.18761,121.4952,121.4952,-154.18761,254.53906,90.232422)"
       gradientUnits="userSpaceOnUse"
       y2="0"
       x2="1"
       y1="0"
       x1="0"><stop
         id="stop336"
         offset="0"
         style="stop-opacity:0.87278553;stop-color:#ffffff" /><stop
         id="stop338"
         offset="0.12466028"
         style="stop-opacity:0.62226291;stop-color:#ffffff" /><stop
         id="stop340"
         offset="0.317597"
         style="stop-opacity:0.62226291;stop-color:#ffffff" /><stop
         id="stop342"
         offset="0.85511689"
         style="stop-opacity:1;stop-color:#ffffff" /><stop
         id="stop344"
         offset="1"
         style="stop-opacity:1;stop-color:#ffffff" /></linearGradient><mask
       id="mask348"
       height="1"
       width="1"
       y="0"
       x="0"
       maskUnits="userSpaceOnUse"><g
         id="g358"><g
           id="g356"><g
             id="g354"><g
               id="g352"><path
                 id="path350"
                 style="fill:url(#linearGradient346);stroke:none"
                 d="M -32768,32767 H 32767 V -32768 H -32768 Z" /></g></g></g></g></mask><linearGradient
       id="linearGradient374"
       spreadMethod="pad"
       gradientTransform="matrix(154.18761,121.4952,121.4952,-154.18761,254.53906,90.232422)"
       gradientUnits="userSpaceOnUse"
       y2="0"
       x2="1"
       y1="0"
       x1="0"><stop
         id="stop364"
         offset="0"
         style="stop-opacity:1;stop-color:#c4eff2" /><stop
         id="stop366"
         offset="0.12466028"
         style="stop-opacity:1;stop-color:#bcedf0" /><stop
         id="stop368"
         offset="0.317597"
         style="stop-opacity:1;stop-color:#bcedf0" /><stop
         id="stop370"
         offset="0.85511689"
         style="stop-opacity:1;stop-color:#ffffff" /><stop
         id="stop372"
         offset="1"
         style="stop-opacity:1;stop-color:#ffffff" /></linearGradient><clipPath
       id="clipPath384"
       clipPathUnits="userSpaceOnUse"><path
         id="path382"
         d="m 411.038,255.596 c -2.991,-4.593 -3.503,-9.186 -3.798,-8.893 v 0 c -0.775,0.815 -1.457,1.713 -2.252,2.513 v 0 c -1.815,1.826 -4.306,3.625 -6.635,4.748 v 0 c -4.378,2.114 -9.523,1.922 -13.847,-0.339 v 0 c -7.601,-3.973 -7.661,-10.818 -7.661,-10.818 v 0 c -2.755,2.807 -10.497,5.14 -14.932,0.472 v 0 c -0.479,-0.504 -1.546,-1.947 -1.199,-2.69 v 0 c 0,0 -6.905,4.561 -9.072,0.228 v 0 c -2.363,-4.726 6.691,-5.446 9.675,-5.443 v 0 c 12.344,0.015 24.701,-0.15 37.044,-0.339 v 0 c 7.633,-0.117 15.268,-0.114 22.903,-0.112 v 0 c 4.928,0.002 9.857,0.004 14.784,-0.026 v 0 c 6.099,-0.038 12.246,-0.35 18.326,0.261 v 0 c 2.308,0.233 4.756,0.462 6.749,1.711 v 0 c 2.684,1.681 3.326,8.325 -5.47,8.5 v 0 c -3.957,0.078 -7.566,-1.042 -10.91,-3.114 v 0 c 4.616,14.656 -7.644,21.616 -12.736,22.093 v 0 c -1.118,0.105 -2.186,0.155 -3.204,0.155 v 0 c -9.632,0 -14.864,-4.453 -17.765,-8.907" /></clipPath><linearGradient
       id="linearGradient404"
       spreadMethod="pad"
       gradientTransform="matrix(136,80.000008,80.000008,-136,345.49805,203.35547)"
       gradientUnits="userSpaceOnUse"
       y2="0"
       x2="1"
       y1="0"
       x1="0"><stop
         id="stop394"
         offset="0"
         style="stop-opacity:0.87278553;stop-color:#ffffff" /><stop
         id="stop396"
         offset="0.12466028"
         style="stop-opacity:0.62226291;stop-color:#ffffff" /><stop
         id="stop398"
         offset="0.317597"
         style="stop-opacity:0.62226291;stop-color:#ffffff" /><stop
         id="stop400"
         offset="0.85511689"
         style="stop-opacity:1;stop-color:#ffffff" /><stop
         id="stop402"
         offset="1"
         style="stop-opacity:1;stop-color:#ffffff" /></linearGradient><mask
       id="mask406"
       height="1"
       width="1"
       y="0"
       x="0"
       maskUnits="userSpaceOnUse"><g
         id="g416"><g
           id="g414"><g
             id="g412"><g
               id="g410"><path
                 id="path408"
                 style="fill:url(#linearGradient404);stroke:none"
                 d="M -32768,32767 H 32767 V -32768 H -32768 Z" /></g></g></g></g></mask><linearGradient
       id="linearGradient432"
       spreadMethod="pad"
       gradientTransform="matrix(136,80.000008,80.000008,-136,345.49805,203.35547)"
       gradientUnits="userSpaceOnUse"
       y2="0"
       x2="1"
       y1="0"
       x1="0"><stop
         id="stop422"
         offset="0"
         style="stop-opacity:1;stop-color:#c4eff2" /><stop
         id="stop424"
         offset="0.12466028"
         style="stop-opacity:1;stop-color:#bcedf0" /><stop
         id="stop426"
         offset="0.317597"
         style="stop-opacity:1;stop-color:#bcedf0" /><stop
         id="stop428"
         offset="0.85511689"
         style="stop-opacity:1;stop-color:#ffffff" /><stop
         id="stop430"
         offset="1"
         style="stop-opacity:1;stop-color:#ffffff" /></linearGradient><clipPath
       id="clipPath442"
       clipPathUnits="userSpaceOnUse"><path
         id="path440"
         d="M 0,118.049 H 500 V 362.013 H 0 Z" /></clipPath><clipPath
       id="clipPath450"
       clipPathUnits="userSpaceOnUse"><path
         id="path448"
         d="M -75.0317,249.644 H 36.6079 V 219.925 H -75.0317 Z" /></clipPath><clipPath
       id="clipPath466"
       clipPathUnits="userSpaceOnUse"><path
         id="path464"
         d="M 0,500 H 500 V 0 H 0 Z" /></clipPath><clipPath
       id="clipPath518"
       clipPathUnits="userSpaceOnUse"><path
         id="path516"
         d="M 0.027,0 H 500 V 126.26 H 0.027 Z" /></clipPath><linearGradient
       id="linearGradient544"
       spreadMethod="pad"
       gradientTransform="matrix(-2.6e-6,58.921875,58.921875,2.6e-6,249.99951,56.12793)"
       gradientUnits="userSpaceOnUse"
       y2="0"
       x2="1"
       y1="0"
       x1="0"><stop
         id="stop540"
         offset="0"
         style="stop-opacity:1;stop-color:#00cbcd" /><stop
         id="stop542"
         offset="1"
         style="stop-opacity:1;stop-color:#00c1c9" /></linearGradient><clipPath
       id="clipPath554"
       clipPathUnits="userSpaceOnUse"><path
         id="path552"
         d="M 0.027,0 H 500 V 126.26 H 0.027 Z" /></clipPath><linearGradient
       id="linearGradient576"
       spreadMethod="pad"
       gradientTransform="matrix(-2.1e-6,49.025391,49.025391,2.1e-6,250.00049,48.620117)"
       gradientUnits="userSpaceOnUse"
       y2="0"
       x2="1"
       y1="0"
       x1="0"><stop
         id="stop572"
         offset="0"
         style="stop-opacity:1;stop-color:#00c1c1" /><stop
         id="stop574"
         offset="1"
         style="stop-opacity:1;stop-color:#00b1ba" /></linearGradient><clipPath
       id="clipPath586"
       clipPathUnits="userSpaceOnUse"><path
         id="path584"
         d="M 0.027,0 H 500 V 126.26 H 0.027 Z" /></clipPath><linearGradient
       id="linearGradient608"
       spreadMethod="pad"
       gradientTransform="matrix(-2.1e-6,48.957031,48.957031,2.1e-6,239.07373,29.387695)"
       gradientUnits="userSpaceOnUse"
       y2="0"
       x2="1"
       y1="0"
       x1="0"><stop
         id="stop604"
         offset="0"
         style="stop-opacity:1;stop-color:#00acac" /><stop
         id="stop606"
         offset="1"
         style="stop-opacity:1;stop-color:#00a3a3" /></linearGradient><clipPath
       id="clipPath618"
       clipPathUnits="userSpaceOnUse"><path
         id="path616"
         d="M 0.027,0 H 500 V 126.26 H 0.027 Z" /></clipPath><linearGradient
       id="linearGradient640"
       spreadMethod="pad"
       gradientTransform="matrix(-2.4e-6,54.860352,54.860352,2.4e-6,250.00049,0)"
       gradientUnits="userSpaceOnUse"
       y2="0"
       x2="1"
       y1="0"
       x1="0"><stop
         id="stop636"
         offset="0"
         style="stop-opacity:1;stop-color:#007a87" /><stop
         id="stop638"
         offset="1"
         style="stop-opacity:1;stop-color:#0083a7" /></linearGradient><clipPath
       id="clipPath650"
       clipPathUnits="userSpaceOnUse"><path
         id="path648"
         d="M 0.027,0 H 500 V 126.26 H 0.027 Z" /></clipPath><clipPath
       id="clipPath662"
       clipPathUnits="userSpaceOnUse"><path
         id="path660"
         d="M 0,500 H 500 V 0 H 0 Z" /></clipPath><clipPath
       id="clipPath708"
       clipPathUnits="userSpaceOnUse"><path
         id="path706"
         d="m 58.4082,318.004 h 28.5527 v -1.251 H 58.4082 Z" /></clipPath><clipPath
       id="clipPath722"
       clipPathUnits="userSpaceOnUse"><path
         id="path720"
         d="M 0,500 H 500 V 0 H 0 Z" /></clipPath><clipPath
       id="clipPath730"
       clipPathUnits="userSpaceOnUse"><path
         id="path728"
         d="M 174.003,27.2568 H 324.076 V 12.7305 H 174.003 Z" /></clipPath></defs><g
     transform="matrix(1.3333333,0,0,-1.3333333,0,666.66667)"
     id="g18"><g
       id="g20"><g
         id="g22"><g
           id="g28"><g
             id="g30"><path
               id="path40"
               style="fill:url(#linearGradient38);stroke:none"
               d="M 0,0 H 500 V 500 H 0 Z" /></g></g></g></g><g
       id="g42"><g
         clip-path="url(#clipPath48)"
         id="g44"><g
           id="g50"><g
             id="g52" /><g
             id="g118"><g
               id="g116"
               opacity="0.199997"
               clip-path="url(#clipPath56)"><g
                 id="g114"><g
                   id="g112"
                   clip-path="url(#clipPath60)"><g
                     id="g110"><g
                       id="g102" /><g
                       id="g108"
                       mask="url(#mask78)"><g
                         id="g106"><path
                           id="path104"
                           style="fill:url(#linearGradient100);fill-rule:evenodd;stroke:none"
                           d="M 0.027,142.742 500,154.745 0.027,184.992 Z" /></g></g></g></g></g></g></g></g><g
           id="g120"><g
             id="g122" /><g
             id="g188"><g
               id="g186"
               opacity="0.199997"
               clip-path="url(#clipPath126)"><g
                 id="g184"><g
                   id="g182"
                   clip-path="url(#clipPath130)"><g
                     id="g180"><g
                       id="g172" /><g
                       id="g178"
                       mask="url(#mask148)"><g
                         id="g176"><path
                           id="path174"
                           style="fill:url(#linearGradient170);fill-rule:evenodd;stroke:none"
                           d="M 619.241,169.5 119.268,181.503 619.241,211.75 Z" /></g></g></g></g></g></g></g></g><g
           id="g190"><g
             id="g192" /><g
             id="g258"><g
               id="g256"
               opacity="0.199997"
               clip-path="url(#clipPath196)"><g
                 id="g254"><g
                   id="g252"
                   clip-path="url(#clipPath200)"><g
                     id="g250"><g
                       id="g242" /><g
                       id="g248"
                       mask="url(#mask218)"><g
                         id="g246"><path
                           id="path244"
                           style="fill:url(#linearGradient240);fill-rule:evenodd;stroke:none"
                           d="m 725.409,100.492 -499.973,12.003 499.973,30.247 z" /></g></g></g></g></g></g></g></g></g></g><g
       id="g260"><g
         clip-path="url(#clipPath266)"
         id="g262"><g
           transform="translate(151.6475,269.1851)"
           id="g268"><path
             id="path270"
             style="fill:#baeae5;fill-opacity:1;fill-rule:evenodd;stroke:none"
             d="m 0,0 c -0.023,-0.001 -0.04,-0.001 -0.051,-0.001 0.011,0 0.029,0 0.051,0.001" /></g><g
           transform="translate(151.6572,269.1851)"
           id="g272"><path
             id="path274"
             style="fill:#baeae5;fill-opacity:1;fill-rule:evenodd;stroke:none"
             d="M 0,0 H -0.01 Z" /></g><g
           transform="translate(151.5967,269.1836)"
           id="g276"><path
             id="path278"
             style="fill:#baeae5;fill-opacity:1;fill-rule:evenodd;stroke:none"
             d="M 0,0 C -0.023,0 -0.021,0 0,0" /></g><g
           transform="translate(131.3418,267.8174)"
           id="g280"><path
             id="path282"
             style="fill:#baeae5;fill-opacity:1;fill-rule:evenodd;stroke:none"
             d="m 0,0 c -0.009,0.002 -0.019,0.002 -0.031,0 -0.039,0 -0.081,-0.002 -0.123,-0.002 -2.83,-0.07 -5.128,-1.423 -7.579,-2.649 0,0 -0.841,1.568 -2.73,3.012 -5.681,4.339 -12.135,2.332 -17.182,-1.447 0,0 0.626,7.3 -7.876,12.733 -3.971,2.537 -8.85,2.956 -13.331,1.572 -3.486,-1.079 -6.6,-3.214 -9.319,-5.668 -2.923,6.47 -11.221,19.427 -30.009,16.554 -0.012,0 -0.026,-0.002 -0.038,-0.002 -0.025,-0.003 -0.051,-0.005 -0.074,-0.007 -0.021,-0.002 -0.042,-0.005 -0.063,-0.007 -6.058,-0.57 -11.472,-3.04 -14.873,-8.221 -1.471,-2.244 -2.104,-4.926 -2.299,-7.568 -0.117,-1.576 -0.079,-3.167 0.174,-4.73 0.207,-1.272 0.836,-3.94 1.435,-4.935 -1.261,2.094 -19.479,8.529 -22.119,0.565 -1.379,-4.159 3.687,-7.463 11.051,-7.463 H -4.984 c 3.954,0 8.014,2.042 8.601,4.33 C 4.274,-1.363 2.347,0 0,0" /></g><g
           transform="translate(151.6572,269.1851)"
           id="g284"><path
             id="path286"
             style="fill:#baeae5;fill-opacity:1;fill-rule:evenodd;stroke:none"
             d="M 0,0 C 0.104,0.002 0.319,0.008 0.692,0.017 1.488,0.037 1.842,0.045 1.924,0.048 1.743,0.043 0.348,0.009 0,0" /></g><g
           transform="translate(49.542,297.354)"
           id="g288"><path
             id="path290"
             style="fill:#baeae5;fill-opacity:1;fill-rule:evenodd;stroke:none"
             d="M 0,0 C 0.003,0 0.006,0 0.009,0 -3.108,-0.273 -0.568,-0.05 0,0" /></g><g
           id="g292"><g
             id="g294" /><g
             id="g314"><g
               id="g312"
               opacity="0.699997"
               clip-path="url(#clipPath298)"><g
                 id="g302"
                 transform="translate(246.3052,203.71)"><path
                   id="path300"
                   style="fill:#c3ede6;fill-opacity:1;fill-rule:nonzero;stroke:none"
                   d="M 0,0 C -0.061,0.071 -0.097,0.113 -0.11,0.127 -0.095,0.111 -0.056,0.064 0,0" /></g><g
                 id="g306"
                 transform="translate(246.3052,203.71)"><path
                   id="path304"
                   style="fill:#c3ede6;fill-opacity:1;fill-rule:nonzero;stroke:none"
                   d="M 0,0 C 0.142,-0.166 0.428,-0.501 0.938,-1.097 1.342,-1.568 0.347,-0.405 0,0" /></g><g
                 id="g310"
                 transform="translate(178.0693,222.9102)"><path
                   id="path308"
                   style="fill:#c3ede6;fill-opacity:1;fill-rule:nonzero;stroke:none"
                   d="m 0,0 c 0.162,0.058 0.145,-0.059 0,0 m -88.146,-27.144 c 2.354,-0.755 4.631,-1.381 6.879,-1.898 H 60.38 c 6.452,0.418 11.733,5.31 8.794,8.745 -3.264,3.817 -8.609,5.075 -13.44,4.319 -2.076,-0.325 -4.067,-1.057 -5.912,-2.053 -1.555,-0.841 -4.773,-3.379 -5.494,-3.568 -1.205,6.04 -2.629,18.842 -14.216,20.355 -6.39,0.834 -11.738,-2.967 -11.984,-2.98 -0.268,-0.015 1.338,9.203 -7.881,13.814 -5.44,2.722 -13.994,1.389 -17.485,-3.375 0.693,6.249 -7.727,13.551 -13.483,14.703 -24.79,4.956 -25.901,-15.525 -26.701,-14.316 -1.789,2.699 -6.09,6.213 -11.036,4.829 -6.062,-2.084 -6.817,-7.824 -5.936,-12.952 -6.582,4.209 -18.197,7.991 -25.341,2.444 -1.567,-1.217 0.236,-10.216 0.369,-12.012 0.396,-5.351 0.811,-10.704 1.22,-16.055" /></g></g></g></g><g
           transform="translate(500,237.6592)"
           id="g316"><path
             id="path318"
             style="fill:#bbebdf;fill-opacity:1;fill-rule:evenodd;stroke:none"
             d="m 0,0 v -44.777 c -31.976,0 -65.4,0 -97.329,0.003 -2.132,0 -4.119,0.381 -5.63,2.098 -1.131,1.286 -1.164,3.144 0.008,4.383 2.145,2.273 4.885,2.777 7.846,2.584 2.128,0.002 3.947,-1.106 4.313,-1.325 0,0 1.644,8.344 9.473,10.165 5.961,1.387 12.231,-0.807 17.698,-6.232 9.055,26.885 43.521,21.895 50.363,8.003 0.158,-0.208 0.256,-0.499 0.683,-0.55 2.198,8.272 7.265,18.668 12.497,25.499 C -0.053,-0.101 -0.028,-0.05 0,0" /></g></g></g><g
       id="g320"><g
         clip-path="url(#clipPath326)"
         id="g322"><g
           id="g328"><g
             id="g330" /><g
             mask="url(#mask348)"
             id="g360"><g
               id="g362"><path
                 id="path376"
                 style="fill:url(#linearGradient374);stroke:none"
                 d="m 326.163,177.516 c -6.654,-5.846 -8.663,-15.353 -7.613,-18.887 v 0 c -7.644,7.754 -17.523,14.94 -29.168,11.575 v 0 c -13.386,-3.867 -12.802,-16.136 -13.657,-16.543 v 0 c -0.268,-0.129 -4.173,3.092 -8.826,3.845 v 0 c -4.3,0.696 -9.44,-0.477 -12.372,-3.852 v 0 l -1.987,-2.659 c -3.064,1.285 -11.184,3.818 -13.792,0.757 v 0 c -6.612,-8.506 14.684,-9.01 17.363,-9.01 v 0 c 13.18,0.002 26.358,0.002 39.537,0.002 v 0 c 24.526,0 49.051,0 73.577,0.002 v 0 c 10.303,0.002 20.589,0.16 30.892,0.294 v 0 c 5.87,0.077 20.167,-0.044 20.167,5.034 v 0 c -0.456,5.47 -14.631,5.796 -21.266,2.224 v 0 c -0.849,8.897 -11.512,19.704 -22.316,13.57 v 0 c -0.664,-0.377 -0.077,2.313 -4.879,8.072 v 0 c -5.323,6.221 -9.985,10.044 -17.759,12.077 v 0 c -2.491,0.651 -5.109,0.976 -7.745,0.976 v 0 c -7.35,0 -14.843,-2.52 -20.156,-7.477" /></g></g></g></g></g><g
       id="g378"><g
         clip-path="url(#clipPath384)"
         id="g380"><g
           id="g386"><g
             id="g388" /><g
             mask="url(#mask406)"
             id="g418"><g
               id="g420"><path
                 id="path434"
                 style="fill:url(#linearGradient432);stroke:none"
                 d="m 411.038,255.596 c -2.991,-4.593 -3.503,-9.186 -3.798,-8.893 v 0 c -0.775,0.815 -1.457,1.713 -2.252,2.513 v 0 c -1.815,1.826 -4.306,3.625 -6.635,4.748 v 0 c -4.378,2.114 -9.523,1.922 -13.847,-0.339 v 0 c -7.601,-3.973 -7.661,-10.818 -7.661,-10.818 v 0 c -2.755,2.807 -10.497,5.14 -14.932,0.472 v 0 c -0.479,-0.504 -1.546,-1.947 -1.199,-2.69 v 0 c 0,0 -6.905,4.561 -9.072,0.228 v 0 c -2.363,-4.726 6.691,-5.446 9.675,-5.443 v 0 c 12.344,0.015 24.701,-0.15 37.044,-0.339 v 0 c 7.633,-0.117 15.268,-0.114 22.903,-0.112 v 0 c 4.928,0.002 9.857,0.004 14.784,-0.026 v 0 c 6.099,-0.038 12.246,-0.35 18.326,0.261 v 0 c 2.308,0.233 4.756,0.462 6.749,1.711 v 0 c 2.684,1.681 3.326,8.325 -5.47,8.5 v 0 c -3.957,0.078 -7.566,-1.042 -10.91,-3.114 v 0 c 4.616,14.656 -7.644,21.616 -12.736,22.093 v 0 c -1.118,0.105 -2.186,0.155 -3.204,0.155 v 0 c -9.632,0 -14.864,-4.453 -17.765,-8.907" /></g></g></g></g></g><g
       id="g436"><g
         clip-path="url(#clipPath442)"
         id="g438"><g
           id="g444"><g
             id="g446" /><g
             id="g458"><g
               id="g456"
               opacity="0.600006"
               clip-path="url(#clipPath450)"><g
                 id="g454"
                 transform="translate(29.3687,230.5098)"><path
                   id="path452"
                   style="fill:#def1ed;fill-opacity:1;fill-rule:evenodd;stroke:none"
                   d="M 0,0 C -3.958,0.078 -7.566,-1.043 -10.91,-3.114 -6.294,11.543 -18.554,18.501 -23.646,18.979 -46.263,21.1 -47.801,0.727 -48.413,1.334 c -0.775,0.814 -1.457,1.713 -2.252,2.514 -1.815,1.824 -4.307,3.624 -6.635,4.747 -4.379,2.114 -9.523,1.923 -13.847,-0.339 -7.602,-3.973 -7.661,-10.819 -7.661,-10.819 -2.755,2.807 -10.498,5.141 -14.933,0.473 -0.479,-0.504 -1.545,-1.947 -1.198,-2.69 0,0 -6.906,4.561 -9.073,0.227 -2.362,-4.725 6.692,-5.445 9.675,-5.442 12.345,0.015 24.702,-0.151 37.044,-0.339 12.561,-0.192 25.126,-0.061 37.688,-0.138 6.099,-0.038 12.246,-0.35 18.326,0.261 C 1.029,-9.979 3.477,-9.749 5.47,-8.5 8.153,-6.818 8.795,-0.175 0,0" /></g></g></g></g></g></g><g
       id="g460"><g
         clip-path="url(#clipPath466)"
         id="g462"><g
           transform="translate(407.0732,170.126)"
           id="g468"><path
             id="path470"
             style="fill:#d9efeb;fill-opacity:1;fill-rule:evenodd;stroke:none"
             d="m 0,0 c 2.141,0.541 4.241,0.785 6.222,-0.421 0.429,-0.262 0.823,-0.053 1.228,0.07 1.146,0.346 2.293,0.681 3.437,1.03 2.257,0.688 4.124,-0.362 6.248,-1.247 -0.307,-0.124 -0.4,-0.196 -0.441,-0.172 C 13.479,0.985 10.451,-0.397 7.416,-1.335 6.57,-1.597 5.895,-1.611 5.156,-1.054 3.619,0.111 1.77,-0.085 0,0" /></g><g
           transform="translate(475.3086,134.7256)"
           id="g472"><path
             id="path474"
             style="fill:#e9f4f1;fill-opacity:1;fill-rule:evenodd;stroke:none"
             d="m 0,0 c -1.479,0.671 -2.548,0.065 -3.583,-0.868 -0.593,-0.533 -0.824,-1.713 -1.597,-1.671 -0.676,0.039 -1.311,0.857 -1.966,1.333 -0.873,0.764 -1.902,1.277 -2.892,1.861 -1.067,0.629 -2.049,0.473 -3.024,-0.077 -1.501,-0.846 -2.597,-2.099 -3.64,-3.728 0.321,0.152 0.436,0.182 0.52,0.25 3.584,2.91 3.616,2.85 7.006,0.778 0.072,-0.044 0.153,-0.077 0.229,-0.114 0.776,-0.871 1.817,-1.398 2.729,-2.09 1.523,-1.158 1.577,-1.199 2.556,0.388 1.309,2.126 3.148,2.873 5.55,2.418 0.821,-0.154 1.647,-0.285 2.47,-0.427 C 2.932,-1.134 1.429,-0.648 0,0" /></g><g
           transform="translate(113.1333,246.0371)"
           id="g476"><path
             id="path478"
             style="fill:#e7f4f2;fill-opacity:1;fill-rule:evenodd;stroke:none"
             d="m 0,0 c -1.995,0.748 -3.847,0.689 -5.468,-0.868 -0.76,-1.365 -1.481,-0.993 -2.213,0.033 -0.171,0.24 -0.4,0.452 -0.636,0.63 -0.576,0.434 -1.17,0.994 -1.947,0.763 -1.867,-0.557 -3.718,-1.175 -5.556,-2.078 0.895,-0.328 1.607,0.255 2.374,0.142 0.386,0.303 0.894,-0.04 1.284,0.24 1.48,-0.005 2.746,-0.536 3.784,-1.582 0.812,-0.817 1.628,-1.634 2.378,-2.505 0.38,-0.442 0.675,-0.597 0.904,0.017 0.481,1.285 1.35,2.35 1.951,3.562 0.602,0.329 1.185,0.662 1.935,0.447 C 0.223,-1.611 1.678,-1.933 3.067,-2.515 3.693,-2.776 4.308,-3.297 5.32,-3.051 3.545,-1.783 1.887,-0.707 0,0" /></g><g
           transform="translate(100.73,182.5869)"
           id="g480"><path
             id="path482"
             style="fill:#8ed6d7;fill-opacity:1;fill-rule:evenodd;stroke:none"
             d="m 0,0 c 3.47,-1.008 19.341,-4.892 22.283,-5.856 0.678,0.025 1.236,-0.296 1.798,-0.615 2.702,-1.533 5.143,-3.429 7.382,-5.56 1.397,-1.329 2.948,-2.494 4.229,-3.946 1.449,-1.936 3.3,-3.503 4.871,-5.334 2.944,-3.427 5.928,-6.82 8.625,-10.451 2.633,-3.124 5.008,-6.445 7.427,-9.732 0.737,-1.001 1.425,-2.037 2.364,-2.869 3.02,-0.985 6.149,-1.524 9.232,-2.243 5.936,-1.386 11.884,-2.713 17.829,-4.06 5.065,-1.147 10.106,-2.426 15.207,-3.389 5.217,-0.983 10.496,-1.641 15.743,-2.466 1.948,-0.305 3.884,-0.675 5.825,-1.015 3.132,-0.459 6.268,-0.897 9.397,-1.38 5.285,-0.817 10.566,-1.664 15.849,-2.499 5.873,-0.928 11.746,-1.873 17.623,-2.777 2.156,-0.331 4.326,-0.567 6.49,-0.846 1.971,-0.344 3.938,-0.709 5.912,-1.023 1.354,-0.214 2.698,-0.461 4.069,-0.588 1.592,-0.148 3.002,-0.766 4.33,-1.76 3.637,-2.72 7.377,-5.306 11.156,-8.002 -0.959,-0.679 -2.096,-0.193 -2.961,-0.74 -6.24,0.835 -12.476,1.711 -18.722,2.491 -4.805,0.599 -9.604,1.228 -14.432,1.648 -6.203,0.539 -12.409,0.867 -18.631,1.079 -3.74,0.127 -7.476,0.062 -11.212,0.159 -1.418,0.037 -2.815,-0.365 -4.24,-0.214 -1.305,0.185 -2.612,0.147 -3.918,0.002 -3.194,1.02 -6.316,2.256 -9.539,3.199 -8.93,2.612 -17.974,4.772 -27.039,6.857 -8.391,1.931 -16.804,3.766 -25.237,5.509 -1.03,0.213 -1.947,0.651 -2.85,1.172 -5.296,3.054 -10.582,6.127 -16.039,8.89 -0.269,0.136 -0.549,0.254 -0.81,0.402 -2.133,1.213 -4.195,1.244 -6.513,0.233 -7.268,-3.17 -14.332,-6.745 -21.393,-10.338 -4.144,-2.108 -8.261,-4.269 -12.379,-6.426 -1.838,-0.964 -2.12,-0.844 -2.993,1.054 -3.342,7.276 -6.576,14.602 -10.332,21.683 -0.917,1.73 -2.23,2.759 -3.988,3.421 -2.944,1.107 -5.924,2.105 -8.924,3.043 -15.579,4.867 -31.35,9.07 -47.028,13.594 -2.44,0.705 -4.873,1.435 -7.287,2.226 -1.595,0.524 -3.237,0.403 -4.845,0.012 -5.252,-1.274 -10.214,-3.37 -15.19,-5.422 -0.585,-0.24 -1.156,-0.632 -1.838,-0.299 -0.002,4.053 -0.003,8.105 -0.004,12.156 0.243,0.589 0.737,0.924 1.235,1.271 8.168,5.69 16.367,11.335 24.899,16.479 3.245,1.846 6.435,3.78 9.911,5.199 2.531,1.033 5.15,1.381 7.81,1.277 4.634,-0.181 9.222,-0.821 13.749,-1.852 0.999,-0.029 1.954,-0.286 2.907,-0.554 2.542,-0.566 5.097,-1.07 7.628,-1.691 0.665,-0.162 1.288,-0.457 1.968,-0.557 C -23.693,6.866 -16.88,4.855 -10.047,2.916 -9.536,2.771 -0.566,0.164 0,0" /></g><g
           transform="translate(0.0308,159.4111)"
           id="g484"><path
             id="path486"
             style="fill:#76d1d3;fill-opacity:1;fill-rule:evenodd;stroke:none"
             d="M 0,0 C 5.499,2.335 10.989,4.703 16.809,6.154 18.836,6.66 20.815,6.549 22.876,5.905 28.78,4.061 34.742,2.4 40.688,0.694 c 8.34,-2.393 16.697,-4.734 25.03,-7.154 6.274,-1.822 12.506,-3.776 18.688,-5.901 2.724,-0.938 4.483,-2.545 5.736,-5.091 3.458,-7.025 6.822,-14.09 9.945,-21.268 0.361,-0.83 0.694,-0.973 1.514,-0.541 5.892,3.11 11.768,6.253 17.727,9.231 5.955,2.975 11.915,5.95 18.094,8.46 2.087,0.846 3.791,0.005 5.523,-0.83 4.302,-2.073 8.558,-4.276 12.56,-6.858 4.031,-2.601 8.39,-3.923 13.014,-4.844 6.858,-1.366 13.673,-2.956 20.497,-4.491 7.878,-1.771 15.715,-3.713 23.491,-5.888 3.724,-1.042 7.427,-2.18 10.986,-3.72 0.192,-0.083 0.35,-0.241 0.523,-0.365 -0.422,-0.419 -0.959,-0.259 -1.451,-0.264 -2.073,-0.024 -4.15,0.053 -6.213,-0.231 -7.038,-0.298 -14.07,-0.741 -21.084,-1.374 -6.978,-0.629 -13.929,-1.515 -20.877,-2.435 -6.94,-0.918 -13.87,-2.004 -20.897,-2.056 -0.081,-10e-4 -0.16,-0.055 -0.238,-0.095 -4.673,0.24 -9.357,0.111 -14.029,0.463 -2.138,0.162 -4.286,0.071 -6.435,0.25 -3.76,0.315 -7.547,0.307 -11.311,0.588 -5.809,0.434 -11.607,1.009 -17.412,1.502 -4.355,0.371 -8.72,0.642 -13.068,1.076 -5.76,0.578 -11.581,0.588 -17.297,1.373 -7.114,0.977 -14.222,0.896 -21.348,0.939 -0.95,0.006 -1.848,-0.464 -2.809,-0.245 -2.829,0.304 -5.654,-0.011 -8.478,-0.092 -4.193,-0.119 -8.383,-0.395 -12.567,-0.712 -4.227,-0.321 -8.465,-0.457 -12.688,-0.854 -1.659,-0.157 -3.345,-0.139 -5.018,-0.156 -1.803,-0.017 -3.6,-0.167 -5.401,-0.187 -0.996,-0.267 -2.058,0.159 -3.039,-0.285 -0.788,-0.072 -1.581,-0.2 -2.338,0.166 -0.017,0.557 -0.047,1.116 -0.047,1.674 -0.002,15.991 -0.002,31.982 0,47.974 0,0.516 0.019,1.031 0.029,1.547" /></g><g
           transform="translate(144.3838,147.0811)"
           id="g488"><path
             id="path490"
             style="fill:#93dedf;fill-opacity:1;fill-rule:evenodd;stroke:none"
             d="m 0,0 c -0.92,1.011 -1.602,2.244 -2.763,3.032 -4.208,4.495 -8.611,8.794 -13.182,12.92 -0.232,0.191 -0.484,0.36 -0.692,0.573 -2.204,2.254 -4.479,4.349 -7.751,5.006 -0.898,0.18 -1.799,0.555 -2.694,0.856 -7.333,2.468 -14.661,4.949 -21.995,7.412 -5.989,2.011 -11.996,3.969 -17.972,6.019 -1.845,0.633 -3.597,0.656 -5.399,-0.06 -4.074,-1.618 -8.158,-3.211 -12.238,-4.815 -0.207,-0.242 -0.459,-0.345 -0.775,-0.258 -0.517,-0.087 -1.034,-0.173 -1.551,-0.26 -1.021,-0.152 -1.927,0.407 -2.899,0.491 -3.624,0.316 -7.25,0.623 -10.88,0.877 -2.131,0.148 -4.275,0.059 -6.412,0.366 -1.44,0.208 -3.057,0.497 -4.435,-0.264 -1.951,-1.08 -3.812,-2.323 -5.696,-3.52 -0.275,-0.174 -0.749,-0.266 -0.739,-0.647 0.014,-0.458 0.527,-0.519 0.859,-0.666 3.997,-1.783 7.999,-3.56 12.095,-5.107 0.916,-0.347 1.877,-0.707 2.886,-0.548 4.648,0.734 9.288,1.525 13.939,2.238 3.256,0.5 6.526,0.902 9.788,1.36 1.733,0.243 3.461,0.512 5.191,0.769 1.084,-0.139 2.132,0.175 3.197,0.27 1.765,0.156 3.069,-0.952 4.555,-1.564 0.164,-0.195 0.295,-0.435 0.496,-0.58 3.28,-2.357 6.154,-5.168 9.005,-8.007 1.123,-1.118 2.28,-2.201 3.421,-3.299 2.487,-2.725 4.979,-5.446 7.453,-8.182 0.356,-0.392 0.741,-0.338 1.175,-0.273 2.2,0.324 4.396,0.683 6.604,0.947 3.184,0.381 6.372,0.779 9.57,0.999 2.256,0.155 4.549,0.259 6.723,-0.683 5.441,-2.356 11.05,-4.24 16.759,-5.82 1.232,-0.342 2.492,-0.642 3.788,-0.684 C 0.405,-1.133 0.525,-0.575 0,0" /></g></g></g><g
       id="g512"><g
         clip-path="url(#clipPath518)"
         id="g514"><g
           transform="translate(344.6504,108.8896)"
           id="g520"><path
             id="path522"
             style="fill:#ffffff;fill-opacity:1;fill-rule:evenodd;stroke:none"
             d="m 0,0 c 51.46,0.12 103.989,4.771 155.35,9.16 v -49.91 h -500 l 0.026,39.527 c 8.15,0.78 30.38,5.103 34.141,5.333 52.079,3.15 51.473,-14.442 102.833,-3.75 C -140.4,14.36 -54.99,-0.189 0,0" /></g><g
           transform="translate(500,24.8398)"
           id="g524"><path
             id="path526"
             style="fill:#00657e;fill-opacity:1;fill-rule:evenodd;stroke:none"
             d="m 0,0 v -24.84 h -500 v 23.6 c 0.28,0.02 0.57,0.02 0.87,0.011 16.44,-0.571 32.85,0.649 49.29,0.669 31.15,0.02 56.68,-4.64 87.17,-11.06 15.89,-3.34 34.83,-3.65 51.1,-1.029 4.47,0.719 8.94,1.339 13.38,1.849 0.56,0.08 1.12,0.14 1.68,0.2 0.87,0.1 1.73,0.201 2.59,0.28 0.57,0.07 1.14,0.12 1.71,0.18 1.96,0.201 3.91,0.38 5.85,0.531 0.27,0.029 0.54,0.049 0.81,0.069 0.01,0.01 0.01,0 0.01,0 0.92,0.08 1.82,0.15 2.73,0.21 0.01,0.01 0.01,0 0.01,0 1.26,0.101 2.52,0.19 3.77,0.26 0.73,0.05 1.46,0.1 2.19,0.14 1.27,0.071 2.54,0.14 3.8,0.19 0.05,0.011 0.09,0.02 0.13,0.011 0.52,0.029 1.03,0.059 1.54,0.069 1.2,0.06 2.4,0.11 3.59,0.15 1.06,0.04 2.12,0.071 3.17,0.1 h 0.16 c 0.86,0.03 1.71,0.051 2.56,0.06 0.76,0.02 1.52,0.04 2.27,0.04 0.88,0.02 1.76,0.03 2.64,0.04 2.3,0.02 4.58,0.03 6.84,0.01 3.3,-0.02 6.55,-0.08 9.72,-0.17 1.75,-0.04 3.47,-0.1 5.17,-0.16 0.55,-0.019 1.09,-0.05 1.63,-0.059 0.57,-0.031 1.13,-0.061 1.69,-0.091 0.54,-0.02 1.08,-0.04 1.62,-0.07 1.27,-0.06 2.54,-0.129 3.78,-0.2 1.34,-0.07 2.67,-0.16 3.98,-0.24 1.27,-0.08 2.53,-0.17 3.77,-0.26 0.62,-0.04 1.23,-0.09 1.83,-0.13 1.01,-0.08 2,-0.16 2.98,-0.24 0.52,-0.05 1.03,-0.09 1.54,-0.13 22.04,-1.889 36.76,-4.639 38.11,-4.84 20.58,-3.02 39.28,-5.049 59.34,1.47 14.59,4.74 29.66,8.47 44.83,12.731 C -46.67,5.95 -23.32,-6.859 0,0" /></g></g></g><g
       id="g528"><g
         id="g530"><g
           id="g536"><g
             id="g538"><path
               id="path546"
               style="fill:url(#linearGradient544);stroke:none"
               d="m 344.65,108.889 c -20.839,-0.072 -41.488,1.426 -62.091,2.924 v 0 c -33.763,2.455 -67.401,4.91 -101.539,0.457 v 0 c -29.282,-3.822 -53.831,-2.482 -78.987,-1.142 v 0 c -19.534,1.041 -39.435,2.081 -62.2,0.705 v 0 c -3.758,-0.23 -17.154,-1.166 -39.806,-6.398 v 0 -49.307 L 500,65.139 v 49.911 c -51.361,-4.39 -103.889,-6.04 -155.35,-6.161" /></g></g></g></g><g
       id="g548"><g
         clip-path="url(#clipPath554)"
         id="g550"><g
           transform="translate(390.1533,97.29)"
           id="g556"><path
             id="path558"
             style="fill:#ffffff;fill-opacity:1;fill-rule:evenodd;stroke:none"
             d="m 0,0 c -41.149,-3.21 -64.517,-7.195 -114.629,-2.29 -21.746,2.129 -45.961,-4.71 -67.741,-7.7 -18.279,-2.51 -34.66,3.13 -52.589,5.48 -21.601,2.83 -42.761,1.52 -64.341,-0.1 -21.32,-1.6 -42.78,-1.95 -64.17,-1.39 -10.02,0.25 -29.79,5.68 -40.38,2.58 v -45.25 h 500 V -9.94 C 63.87,-8.99 31.92,2.5 0,0" /></g></g></g><g
       id="g560"><g
         id="g562"><g
           id="g568"><g
             id="g570"><path
               id="path578"
               style="fill:url(#linearGradient576);stroke:none"
               d="M 403.85,97.29 C 362.7,94.08 339.333,90.094 289.22,95 v 0 c -21.745,2.129 -45.96,-4.71 -67.74,-7.7 v 0 c -18.28,-2.51 -34.66,3.129 -52.59,5.48 v 0 c -21.6,2.831 -42.76,1.52 -64.341,-0.101 v 0 C 83.23,91.08 61.77,90.731 40.38,91.29 v 0 C 30.368,91.54 10.623,96.96 0.027,93.878 v 0 V 48.62 H 500 v 38.73 c -29.124,0.857 -57.984,10.294 -86.791,10.295 v 0 c -3.122,0 -6.238,-0.111 -9.359,-0.355" /></g></g></g></g><g
       id="g580"><g
         clip-path="url(#clipPath586)"
         id="g582"><g
           transform="translate(514.9277,69.4814)"
           id="g588"><path
             id="path590"
             style="fill:#ffffff;fill-opacity:1;fill-rule:evenodd;stroke:none"
             d="m 0,0 -2.004,-39.773 c -1.036,-0.21 -2.208,-0.321 -3.505,-0.321 h -565.382 v 42.91 c 12.903,-1.64 40.255,-6.82 44.579,-6.96 27.192,-0.87 50.3,5.36 76.082,11.9 22.653,5.03 48.071,-8.569 70.519,-10.989 19.161,-2.071 38.707,-3.71 57.674,0.609 55.865,9.311 104.777,4.13 159.698,-4.029 0.113,-0.021 0.238,-0.031 0.353,-0.051 40.197,-5.93 81.1,-4.26 121.525,0 C -27.569,-5.344 -12.743,-1.72 0,0" /></g></g></g><g
       id="g592"><g
         id="g594"><g
           id="g600"><g
             id="g602"><path
               id="path610"
               style="fill:url(#linearGradient608);stroke:none"
               d="M 74.289,77.237 C 49.085,70.844 26.435,64.747 0.027,65.29 v 0 -35.902 H 500 v 35.806 c -5.451,-0.988 -10.847,-1.879 -15.941,-2.416 v 0 c -40.426,-4.26 -81.33,-5.93 -121.526,0 v 0 c -0.114,0.02 -0.24,0.029 -0.353,0.05 v 0 c -54.921,8.16 -103.833,13.34 -159.698,4.029 v 0 c -18.967,-4.319 -38.514,-2.679 -57.674,-0.609 v 0 C 125.815,68.296 104.7,78.345 84.928,78.344 v 0 c -3.597,0 -7.152,-0.333 -10.639,-1.107" /></g></g></g></g><g
       id="g612"><g
         clip-path="url(#clipPath618)"
         id="g614"><g
           transform="translate(441.6914,48.6201)"
           id="g620"><path
             id="path622"
             style="fill:#ffffff;fill-opacity:1;fill-rule:evenodd;stroke:none"
             d="M 0,0 C -17.46,3.189 -35.04,5.58 -52.97,5.46 -71.47,5.34 -89.9,3.02 -108.31,0 c -30.03,-4.93 -60.01,-11.71 -90.15,-13.851 -41.66,-2.96 -82.81,6.171 -123.63,13.851 -5.48,1.03 -10.95,2.03 -16.42,2.979 -17.16,2.96 -34.27,2.611 -51.57,1.531 -7.61,-0.47 -15.07,-2.26 -22.75,-3.09 -14.79,-1.6 -27.37,3.24 -41.38,4.82 v -54.86 h 500 V -9.01 C 30.5,-6.17 15.3,-2.78 0,0" /></g></g></g><g
       id="g624"><g
         id="g626"><g
           id="g632"><g
             id="g634"><path
               id="path642"
               style="fill:url(#linearGradient640);stroke:none"
               d="M 0.027,0 H 500 v 39.611 c -15.29,2.839 -30.49,6.229 -45.79,9.009 v 0 c -17.46,3.189 -35.04,5.58 -52.97,5.46 v 0 c -18.5,-0.12 -36.931,-2.441 -55.339,-5.46 v 0 C 315.87,43.691 285.889,36.91 255.75,34.77 v 0 c -41.66,-2.96 -82.811,6.17 -123.63,13.85 v 0 c -5.48,1.03 -10.95,2.03 -16.42,2.98 v 0 c -17.16,2.96 -34.27,2.61 -51.57,1.53 v 0 C 56.52,52.66 49.06,50.87 41.38,50.04 v 0 C 26.6,48.442 14.025,53.274 0.027,54.857 v 0 z" /></g></g></g></g><g
       id="g644"><g
         clip-path="url(#clipPath650)"
         id="g646"><g
           transform="translate(-21.3784,18.0459)"
           id="g652"><path
             id="path654"
             style="fill:#00657e;fill-opacity:1;fill-rule:evenodd;stroke:none"
             d="m 0,0 c 0,0 55.448,14.665 84.778,10.54 29.33,-4.125 76.992,-20.623 96.699,-15.123 19.707,5.499 66.553,13.697 94.866,12.373 36.035,-1.686 47.799,-18.17 93.032,-17.778 19.873,0.172 77.451,25.111 113.656,13.654 36.204,-11.458 58.201,-11.672 58.201,-11.672 0,0 63.976,-66.147 -55.631,-58.726 C 365.995,-59.311 -58.729,-101.541 0,0" /></g></g></g><g
       id="g656"><g
         clip-path="url(#clipPath662)"
         id="g658"><g
           transform="translate(48.9302,194.333)"
           id="g664"><path
             id="path666"
             style="fill:#75d0d2;fill-opacity:1;fill-rule:evenodd;stroke:none"
             d="m 0,0 9.76,124.5 h 28.121 l 9.76,-135.239 z" /></g><path
           id="path668"
           style="fill:#75d0d2;fill-opacity:1;fill-rule:evenodd;stroke:none"
           d="M 90.973,326.626 H 54.529 v -8.62 h 36.444 z" /><path
           id="path670"
           style="fill:#75d0d2;fill-opacity:1;fill-rule:evenodd;stroke:none"
           d="M 86.811,353.222 H 58.69 v -26.596 h 28.121 z" /><g
           transform="translate(72.7505,353.2217)"
           id="g672"><path
             id="path674"
             style="fill:#75d0d2;fill-opacity:1;fill-rule:evenodd;stroke:none"
             d="M 0,0 H 14.057 L 7.028,5.014 0,10.028 -7.028,5.014 -14.057,0 Z" /></g><g
           transform="translate(85.7896,186.0244)"
           id="g676"><path
             id="path678"
             style="fill:#81d4d5;fill-opacity:1;fill-rule:evenodd;stroke:none"
             d="m 0,0 -5.253,131.981 h 2.88 v 8.621 H -5.29 v 26.459 h 0.001 l -3.906,5.014 -3.906,5.014 -3.905,-5.014 -3.906,-5.014 h 0.083 v -26.459 h -2.849 v -8.621 h 2.849 L -26.175,5.9 Z" /></g><g
           transform="translate(62.9878,318.0039)"
           id="g680"><path
             id="path682"
             style="fill:#92dada;fill-opacity:1;fill-rule:evenodd;stroke:none"
             d="m 0,0 h 2 v -127.379 l -9.328,2.191 L -1.73,0 h -2.85 v 8.62 h 2.85 V 35.08 L 9.763,45.246 1.81,35.08 V 10.05 L 0,8.51 Z" /></g><path
           id="path684"
           style="fill:#6cbec0;fill-opacity:1;fill-rule:evenodd;stroke:none"
           d="M 90.988,326.508 H 54.513 v 1.55 h 36.475 z" /><path
           id="path686"
           style="fill:#6cbec0;fill-opacity:1;fill-rule:evenodd;stroke:none"
           d="M 90.988,351.535 H 54.513 v 1.55 h 36.475 z" /><g
           transform="translate(72.751,365)"
           id="g688"><path
             id="path690"
             style="fill:#6cbec0;fill-opacity:1;fill-rule:evenodd;stroke:none"
             d="M 0,0 H 1.14 L 0.57,11.344 0,22.687 -0.57,11.344 -1.14,0 Z" /></g><g
           transform="translate(75.1289,364.3921)"
           id="g692"><path
             id="path694"
             style="fill:#6cbec0;fill-opacity:1;fill-rule:evenodd;stroke:none"
             d="m 0,0 c 0,-1.313 -1.065,-2.378 -2.378,-2.378 -1.314,0 -2.379,1.065 -2.379,2.378 0,1.313 1.065,2.378 2.379,2.378 C -1.065,2.378 0,1.313 0,0" /></g><path
           id="path696"
           style="fill:#6cbec0;fill-opacity:1;fill-rule:evenodd;stroke:none"
           d="m 76.733,334.25 h -6.465 v 12.313 h 6.465 z" /><path
           id="path698"
           style="fill:#6ec1c3;fill-opacity:1;fill-rule:evenodd;stroke:none"
           d="m 76.733,276.285 h -6.465 v 12.313 h 6.465 z" /><path
           id="path700"
           style="fill:#6ec1c3;fill-opacity:1;fill-rule:evenodd;stroke:none"
           d="m 76.733,218.319 h -6.465 v 12.313 h 6.465 z" /><g
           id="g702"><g
             id="g704" /><g
             id="g714"><g
               id="g712"
               opacity="0.399994"
               clip-path="url(#clipPath708)"><path
                 id="path710"
                 style="fill:#6cbec0;fill-opacity:1;fill-rule:evenodd;stroke:none"
                 d="M 86.961,316.753 H 58.408 v 1.25 h 28.553 z" /></g></g></g></g></g></g></svg>
