<?xml version="1.0" encoding="UTF-8"?>
<svg width="180px" height="180px" viewBox="0 0 180 180" version="1.1" xmlns="http://www.w3.org/2000/svg" xmlns:xlink="http://www.w3.org/1999/xlink">
    <!-- Generator: Sketch 51.3 (57544) - http://www.bohemiancoding.com/sketch -->
    <title>cruise (1)</title>
    <desc>Created with Sketch.</desc>
    <defs></defs>
    <g id="Page-1" stroke="none" stroke-width="1" fill="none" fill-rule="evenodd">
        <g id="Group-2" fill-rule="nonzero">
            <g id="cruise-(1)">
                <rect id="Rectangle-path" fill="#AAAAA0" x="62" y="31" width="55" height="14"></rect>
                <rect id="Rectangle-path" fill="#E6E6E6" x="48" y="46" width="85" height="14"></rect>
                <rect id="Rectangle-path" fill="#F03C32" x="83" y="2" width="14" height="29"></rect>
                <g id="Group" transform="translate(37.000000, 60.000000)" fill="#5AD2E6">
                    <polygon id="Shape" points="0.000348837209 0.00851648352 0.000348837209 30.970022 52.3259302 0.00851648352"></polygon>
                    <polygon id="Shape" points="104.651512 0.00851648352 52.3259302 0.00851648352 104.651512 30.970022"></polygon>
                </g>
                <g id="Group" transform="translate(18.000000, 60.000000)" fill="#6E6E6E">
                    <path d="M0.000351351351,43.9104615 L20.5041622,113.990523 C26.7336216,116.439372 33.7423784,116.058535 39.7157027,112.864788 L45.5600811,109.739926 C52.0456757,106.272418 59.7613514,106.115372 66.3787027,109.316258 L71.3246757,111.708714 L71.3246757,42.8396923 L71.3246757,0.00892307692 L0.000351351351,43.9104615 Z" id="Shape"></path>
                    <path d="M71.3246757,0.00892307692 L71.3246757,42.8396923 L71.3246757,111.708714 L75.1368378,113.552935 C81.6002973,116.679582 89.1216757,116.606055 95.5247027,113.353772 L103.092108,109.510068 C109.512351,106.249218 117.045324,106.19568 123.507378,109.333748 L142.649,43.9104615 L71.3246757,0.00892307692 Z" id="Shape"></path>
                </g>
                <path d="M115.671075,97.4827844 C115.671075,97.4827844 138.588669,111.477615 138.602851,111.486036 C140.250407,112.491983 142.468422,111.974448 143.481348,110.342548 C144.494275,108.710298 143.978062,106.520513 142.329087,105.514567 C142.329087,105.514567 119.426029,91.5288586 119.397311,91.5113151 C117.749046,90.5046669 115.529258,91.0355343 114.515268,92.6548029 C113.499151,94.2775801 114.038409,96.4866624 115.671075,97.4827844 Z" id="Shape" fill="#000000"></path>
                <path d="M102.927132,88.376 C103.54661,88.766 104.268731,89 105.018626,89 C106.427043,89 107.711082,88.2924 108.447693,87.1008 C110.016716,84.5624 108.044368,81.0004 105.027481,81 C102.456586,80.9996 100.51805,83.4316 101.105729,85.918 C101.339593,86.9084 102.024682,87.808 102.927132,88.376 Z" id="Shape" fill="#000000"></path>
                <path d="M42.558648,111.998494 C43.228904,112.016958 43.8952425,111.866104 44.452602,111.52224 C44.452602,111.52224 67.3328341,97.4049848 67.3488604,97.3948814 C68.9956531,96.3789659 69.495674,94.203945 68.4607304,92.5915796 C67.4560587,91.0262475 65.1397223,90.52038 63.5488437,91.5035466 C63.5488437,91.5035466 40.6910484,105.60373 40.6525853,105.627421 C39.0054365,106.643336 38.5029225,108.820099 39.5403592,110.430026 C40.1639608,111.398212 41.3673588,111.965745 42.558648,111.998494 Z" id="Shape" fill="#000000"></path>
                <path d="M77.0015524,89 C78.8560785,89 80.493343,87.6948 80.9026591,85.8836 C81.4632181,83.4036 79.5290694,81 76.9935501,81 C75.135423,81 73.5073611,82.3056 73.0964445,84.1152 C72.5366857,86.5804 74.4888395,89 77.0015524,89 Z" id="Shape" fill="#000000"></path>
                <path d="M179.137466,160.130442 C177.863406,158.664991 175.642942,158.510289 174.177632,159.784472 C170.428928,163.044117 166.959716,166.423656 162.041014,167.783277 C156.573173,169.294435 151.376737,168.101822 146.428153,165.627291 L164.737142,104.019268 C165.192766,102.486662 164.556439,100.839435 163.189215,100.010724 L146.249911,89.7458843 L146.249911,59.771287 C146.249911,57.829775 144.675968,56.255329 142.734292,56.255329 L135.703056,56.255329 L135.703056,45.7074548 C135.703056,43.7659428 134.129113,42.1914967 132.187437,42.1914967 L121.113239,42.1914967 L121.113239,31.6436226 C121.113239,29.7021105 119.539297,28.1276645 117.597621,28.1276645 L100.546872,28.1276645 L100.546872,3.51595806 C100.546872,1.57444602 98.9729293,0 97.0312533,0 L82.9687797,0 C81.0271037,0 79.4531613,1.57444602 79.4531613,3.51595806 L79.4531613,28.1276645 L62.4024121,28.1276645 C60.460736,28.1276645 58.8867937,29.7021105 58.8867937,31.6436226 L58.8867937,42.1914967 L47.8125957,42.1914967 C45.8709197,42.1914967 44.2969773,43.7659428 44.2969773,45.7074548 L44.2969773,56.255329 L37.2657406,56.255329 C35.3240645,56.255329 33.7501222,57.829775 33.7501222,59.771287 L33.7501222,89.7458843 L16.8111696,100.010372 C15.443594,100.839084 14.8076187,102.48631 15.2632428,104.018916 C15.2632428,104.018916 33.527232,165.474347 33.5349663,165.501068 C33.223131,164.451906 27.5974384,163.761021 26.60287,163.632337 C16.3664439,162.307524 8.58251319,167.4359 1.20885516,173.847953 C-0.256454585,175.122136 -0.411141794,177.342463 0.86256675,178.807915 C2.07861915,180.206563 4.34162271,180.441429 5.82204962,179.154237 C13.4185979,172.549861 21.9829958,167.515361 32.0341488,172.542126 C41.1269442,177.088611 50.5389578,179.03821 60.0096822,174.053988 C67.6463085,170.033841 75.0157478,166.562536 83.5397161,170.621358 L92.3030981,174.7948 C99.8005059,178.365607 108.360334,178.283334 115.787077,174.569076 C120.363709,172.280539 125.015224,169.235016 130.242949,168.875685 C135.367314,168.523737 140.318711,170.431848 144.821164,172.685225 C150.769238,175.659726 157.732624,176.253923 164.119799,174.433008 C170.003187,172.755545 174.284858,169.008236 178.790826,165.090053 C180.256488,163.816221 180.411175,161.595894 179.137466,160.130442 Z M139.929532,162.809602 C139.968555,161.721765 130.07209,161.73161 129.409044,161.801577 C123.306634,162.447107 118.027581,165.587209 112.642357,168.280082 C106.280494,171.46132 99.7344123,170.54682 93.5156349,167.583922 L93.5156349,66.0128158 L157.223914,104.618035 C157.223914,104.618035 139.929884,162.809954 139.929532,162.809602 Z M139.218674,85.4852463 L102.586633,63.2872451 L139.218674,63.2872451 L139.218674,85.4852463 Z M86.4843981,7.03191612 L93.5156349,7.03191612 L93.5156349,28.1276645 L86.4843981,28.1276645 L86.4843981,7.03191612 Z M65.9180305,35.1595806 L114.082002,35.1595806 L114.082002,42.1914967 L65.9180305,42.1914967 L65.9180305,35.1595806 Z M51.3282141,49.2234129 L128.671819,49.2234129 L128.671819,56.255329 L51.3282141,56.255329 L51.3282141,49.2234129 Z M40.7813589,63.2872451 L77.4133995,63.2872451 L40.7813589,85.4852463 L40.7813589,63.2872451 Z M86.4843981,66.0128158 C86.4843981,66.0128158 86.4843981,164.231807 86.4843981,164.235675 C86.4851012,163.610889 81.4728841,162.458358 80.8172212,162.316313 C74.698639,160.991852 68.1300576,161.832869 62.5831149,164.752872 C58.5584349,166.871237 54.6754344,169.342604 50.0724352,169.935395 C50.0639978,169.936449 50.0555603,169.937504 50.0471228,169.938559 C47.3576747,170.265543 44.6049455,170.067595 42.0019817,169.308499 L22.7761193,104.618035 L86.4843981,66.0128158 Z" id="Shape" fill="#000000"></path>
            </g>
        </g>
    </g>
</svg>