<?xml version="1.0" encoding="UTF-8"?>
<svg width="512px" height="480px" viewBox="0 0 512 480" version="1.1" xmlns="http://www.w3.org/2000/svg" xmlns:xlink="http://www.w3.org/1999/xlink">
    <!-- Generator: Sketch 51.3 (57544) - http://www.bohemiancoding.com/sketch -->
    <title>goal</title>
    <desc>Created with Sketch.</desc>
    <defs></defs>
    <g id="Page-1" stroke="none" stroke-width="1" fill="none" fill-rule="evenodd">
        <g id="goal" transform="translate(-1.000000, -1.000000)" fill="#28C2A0" fill-rule="nonzero">
            <path d="M34.763,420.992 L17,420.992 C8.709,420.992 1,427.701 1,435.992 C1,444.283 8.709,450.992 17,450.992 L34.763,450.992 C40.976,468.414 57.47,480.992 77,480.992 C96.53,480.992 113.024,468.414 119.237,450.992 L184.763,450.992 C190.976,468.414 207.47,480.992 227,480.992 C246.53,480.992 263.024,468.414 269.237,450.992 L334.763,450.992 C340.976,468.414 357.47,480.992 377,480.992 C396.53,480.992 413.024,468.414 419.237,450.992 L461.789,450.992 L457.394,455.387 C451.535,461.246 451.535,470.739 457.394,476.598 C460.324,479.528 464.162,480.993 467.999,480.993 C471.836,480.993 475.675,479.528 478.604,476.598 L508.586,446.616 C509.978,445.228 511.082,443.565 511.845,441.72 C513.361,438.054 513.361,433.931 511.845,430.265 C511.081,428.419 509.977,426.757 508.586,425.369 L478.604,395.387 C472.745,389.528 463.252,389.528 457.393,395.387 C451.534,401.246 451.534,410.739 457.393,416.598 L461.788,420.993 L419.236,420.993 C414.704,408.285 404.707,398.288 391.999,393.756 L391.999,290.608 C406.124,269.851 451.999,199.888 451.999,165.992 C451.999,124.639 418.352,90.992 376.999,90.992 C335.646,90.992 301.999,124.639 301.999,165.992 C301.999,199.888 347.874,269.851 361.999,290.608 L361.999,393.755 C349.291,398.287 339.294,408.284 334.762,420.992 L269.236,420.992 C264.704,408.284 254.707,398.287 241.999,393.755 L241.999,200.608 C256.124,179.851 301.999,109.888 301.999,75.992 C301.999,34.639 268.352,0.992 226.999,0.992 C185.646,0.992 151.999,34.639 151.999,75.992 C151.999,109.888 197.874,179.851 211.999,200.608 L211.999,393.755 C199.291,398.287 189.294,408.284 184.762,420.992 L119.236,420.992 C114.704,408.284 104.707,398.287 91.999,393.755 L91.999,350.608 C106.124,329.851 151.999,259.888 151.999,225.992 C151.999,184.639 118.352,150.992 76.999,150.992 C35.646,150.992 0.999,184.639 0.999,225.992 C0.999,259.888 47.874,329.851 61.999,350.608 L61.999,393.755 C49.292,398.287 39.295,408.284 34.763,420.992 Z M377,150.992 C385.284,150.992 392,157.708 392,165.992 C392,174.276 385.284,180.992 377,180.992 C368.716,180.992 362,174.276 362,165.992 C362,157.708 368.716,150.992 377,150.992 Z M227,60.992 C235.284,60.992 242,67.708 242,75.992 C242,84.276 235.284,90.992 227,90.992 C218.716,90.992 212,84.276 212,75.992 C212,67.708 218.716,60.992 227,60.992 Z M77,210.992 C85.284,210.992 92,217.708 92,225.992 C92,234.276 85.284,240.992 77,240.992 C68.716,240.992 62,234.276 62,225.992 C62,217.708 68.716,210.992 77,210.992 Z" id="Shape"></path>
        </g>
    </g>
</svg>