<?xml version="1.0" encoding="UTF-8"?>
<svg width="512px" height="408px" viewBox="0 0 512 408" version="1.1" xmlns="http://www.w3.org/2000/svg" xmlns:xlink="http://www.w3.org/1999/xlink">
    <!-- Generator: Sketch 51.3 (57544) - http://www.bohemiancoding.com/sketch -->
    <title>coding</title>
    <desc>Created with Sketch.</desc>
    <defs></defs>
    <g id="Page-1" stroke="none" stroke-width="1" fill="none" fill-rule="evenodd">
        <g id="coding" fill="#28C2A0" fill-rule="nonzero">
            <path d="M506.76,190.828 L388.36,65.388 C381.083,57.67 368.936,57.318 361.218,64.601 C353.512,71.878 353.154,84.031 360.437,91.743 L466.402,203.999 L360.437,316.268 C353.154,323.98 353.512,336.127 361.218,343.41 C364.93,346.911 369.672,348.645 374.396,348.645 C379.497,348.645 384.591,346.623 388.361,342.635 L506.761,217.189 C513.742,209.785 513.742,198.226 506.76,190.828 Z" id="Shape"></path>
            <path d="M151.566,316.262 L45.608,203.999 L151.566,91.737 C158.843,84.025 158.491,71.871 150.779,64.595 C143.073,57.318 130.913,57.67 123.637,65.382 L5.237,190.822 C-1.745,198.22 -1.745,209.785 5.237,217.184 L123.643,342.63 C127.419,346.63 132.507,348.646 137.608,348.646 C142.331,348.646 147.074,346.905 150.779,343.404 C158.498,336.127 158.843,323.974 151.566,316.262 Z" id="Shape"></path>
            <path d="M287.061,0.697 C276.584,-0.89 266.779,6.303 265.179,16.78 L208.859,385.42 C207.259,395.903 214.459,405.702 224.942,407.302 C225.928,407.449 226.9,407.52 227.867,407.52 C237.192,407.52 245.371,400.717 246.824,391.219 L303.144,22.579 C304.744,12.095 297.544,2.297 287.061,0.697 Z" id="Shape"></path>
        </g>
    </g>
</svg>